<?xml version="1.0" standalone="no"?>
<!DOCTYPE svg PUBLIC "-//W3C//DTD SVG 20010904//EN"
 "http://www.w3.org/TR/2001/REC-SVG-20010904/DTD/svg10.dtd">
<svg version="1.0" xmlns="http://www.w3.org/2000/svg"
 width="615.000000pt" height="615.000000pt" viewBox="0 0 615.000000 615.000000"
 preserveAspectRatio="xMidYMid meet">
<metadata>
Created by potrace 1.14, written by Peter Selinger 2001-2017
</metadata>
<g transform="translate(0.000000,615.000000) scale(0.100000,-0.100000)"
fill="#000000" stroke="none">
<path d="M2706 5978 c-20 -31 -60 -141 -76 -205 -9 -40 -17 -53 -30 -53 -10 0
-20 7 -23 15 -4 8 -29 26 -58 41 -56 28 -149 94 -149 105 0 4 -13 14 -29 22
-34 17 -73 4 -79 -27 -5 -24 108 -133 164 -157 61 -27 63 -45 9 -71 -25 -12
-45 -25 -45 -28 0 -4 -43 -51 -95 -105 -52 -54 -95 -103 -95 -110 0 -6 -9 -20
-21 -31 -23 -21 -159 -219 -159 -232 0 -19 -58 -117 -71 -119 -14 -2 -73 67
-120 140 -28 44 -88 69 -114 47 -22 -18 -19 -39 9 -61 35 -28 176 -234 176
-258 0 -25 -67 -72 -135 -96 -28 -9 -83 -18 -125 -19 l-75 -1 0 -35 c0 -27 6
-38 25 -49 33 -18 223 -19 245 -1 8 7 22 10 30 6 13 -5 14 -18 9 -73 -11 -131
-9 -458 5 -576 8 -64 11 -120 8 -123 -6 -6 -56 13 -109 42 -14 7 -32 14 -40
14 -8 0 -23 8 -34 18 -24 21 -69 42 -93 42 -22 0 -34 -45 -20 -72 5 -9 34 -29
64 -44 31 -14 57 -30 60 -34 2 -4 26 -15 52 -24 72 -26 133 -60 133 -72 0 -18
-37 -60 -139 -161 -52 -52 -105 -96 -117 -99 -12 -3 -30 -21 -40 -39 -16 -30
-16 -35 -2 -57 12 -17 26 -24 60 -26 49 -3 38 -10 177 113 77 67 108 81 98 45
-3 -12 0 -20 7 -20 8 0 23 -45 40 -113 15 -61 43 -159 62 -217 19 -57 34 -110
34 -117 0 -10 -20 -13 -77 -12 -210 4 -242 -4 -229 -57 7 -27 67 -60 91 -50 7
2 53 6 102 7 82 2 88 1 91 -18 5 -31 -106 -199 -183 -279 -53 -54 -60 -73 -37
-103 27 -37 74 -40 107 -7 14 14 25 30 25 36 0 6 7 13 15 16 8 3 46 48 86 100
78 105 89 108 110 30 11 -44 24 -73 117 -266 33 -69 62 -133 64 -143 3 -17 -9
-19 -172 -22 -96 -3 -197 -6 -225 -9 -27 -2 -102 -7 -165 -11 -128 -7 -151
-17 -149 -61 5 -98 3 -381 -3 -444 -9 -99 2 -131 56 -154 22 -10 57 -21 77
-23 34 -5 37 -8 42 -47 6 -46 7 -48 42 -203 14 -61 25 -133 25 -160 0 -26 5
-64 11 -83 17 -54 29 -128 35 -215 3 -44 9 -84 14 -90 5 -6 11 -22 13 -35 2
-14 7 -32 10 -40 7 -18 19 -151 21 -230 1 -49 8 -75 36 -145 11 -27 22 -91 24
-143 2 -81 29 -86 541 -98 373 -8 331 -8 620 0 427 12 454 15 456 61 1 63 8
98 33 185 8 30 20 87 27 125 6 39 12 79 14 90 2 11 16 74 30 140 15 66 31 143
36 172 5 29 14 65 20 80 6 15 15 51 19 78 37 214 53 288 93 420 l12 40 68 7
c38 3 71 9 74 12 3 3 1 31 -4 63 -6 32 -9 74 -7 93 3 19 4 71 3 115 -3 171 4
345 14 345 12 0 -18 53 -43 75 -12 11 -38 20 -58 21 -131 6 -274 17 -316 25
-27 5 -92 9 -145 10 -102 1 -196 11 -208 22 -4 4 1 21 10 37 10 15 19 41 21
57 2 15 11 44 19 63 9 19 21 53 27 75 16 63 62 140 86 143 14 2 40 -15 80 -52
32 -31 63 -56 69 -56 5 0 22 -6 36 -14 21 -10 29 -11 43 -1 28 21 9 62 -62
131 l-65 63 24 21 c13 11 38 28 54 37 17 9 32 19 35 23 3 4 21 17 40 28 19 11
50 28 67 38 47 27 41 76 -12 99 -33 15 -48 13 -80 -10 -16 -12 -50 -32 -75
-45 -25 -12 -53 -29 -62 -37 -26 -23 -37 -8 -24 32 7 19 15 38 19 41 4 4 7 20
7 35 0 15 5 31 10 34 6 3 10 14 10 24 0 10 6 24 14 30 8 7 18 27 22 44 3 17
10 38 14 47 5 8 18 49 30 90 12 41 26 85 31 98 5 13 9 33 9 45 0 12 9 33 19
46 18 24 20 24 82 12 35 -7 110 -13 167 -13 56 0 102 -4 102 -8 0 -5 -11 -39
-24 -77 -60 -170 -65 -195 -47 -220 18 -26 81 -32 100 -10 6 8 29 70 51 139
22 69 46 133 53 143 13 16 15 16 38 -6 14 -13 40 -50 59 -83 57 -95 80 -116
133 -116 25 0 48 4 52 10 5 9 -9 40 -30 66 -5 7 -26 36 -45 64 -19 29 -50 69
-67 90 -33 38 -42 60 -23 60 17 0 90 34 90 42 0 5 9 8 19 8 26 0 150 85 240
165 45 39 78 62 84 56 11 -11 17 -242 7 -256 -4 -5 -10 -30 -14 -55 -8 -59 13
-88 67 -92 66 -4 68 2 74 243 3 118 7 216 9 218 5 5 153 -26 213 -45 61 -19
117 -18 125 2 8 22 -27 69 -61 82 -29 10 -192 48 -253 57 -45 8 -46 10 -31 48
7 18 16 46 20 62 4 17 15 46 23 65 18 42 38 161 38 230 0 45 2 50 23 52 12 0
29 2 37 3 29 2 121 -23 138 -38 32 -29 65 -36 100 -21 30 12 32 16 21 36 -28
53 -53 67 -164 95 -60 15 -112 29 -114 30 -10 7 44 95 169 277 47 68 51 98 15
114 -43 20 -60 14 -109 -38 -25 -28 -46 -53 -46 -56 0 -9 -55 -89 -77 -112
-12 -13 -28 -37 -35 -53 -21 -48 -37 -45 -101 20 -33 33 -69 63 -81 67 -11 3
-30 14 -41 24 -11 9 -36 23 -55 30 -56 21 -62 29 -41 51 10 11 24 32 32 47 7
15 26 49 41 75 16 26 28 52 28 57 0 5 13 30 29 56 24 37 28 50 19 64 -13 21
-60 50 -80 50 -14 0 -58 -62 -58 -83 0 -18 -23 -67 -32 -67 -4 0 -19 -25 -33
-55 -15 -30 -32 -55 -39 -55 -7 0 -29 24 -49 53 -117 170 -140 196 -176 207
-23 6 -33 4 -45 -9 -26 -29 -20 -47 49 -141 68 -93 103 -154 107 -185 3 -29 2
-30 -52 -36 -58 -6 -146 -35 -156 -50 -3 -5 -14 -9 -24 -9 -17 0 -20 9 -22 83
-2 45 1 104 5 131 8 44 6 51 -15 71 -13 13 -35 25 -51 29 -37 9 -45 -15 -51
-151 -2 -71 -8 -108 -15 -107 -6 1 -15 2 -19 3 -4 0 -32 33 -62 72 -29 38 -61
74 -71 80 -26 14 -65 11 -79 -6 -12 -15 -5 -75 10 -75 4 0 27 -26 51 -57 23
-32 47 -60 52 -62 5 -2 17 -12 26 -23 9 -12 31 -34 49 -51 17 -17 32 -34 32
-39 0 -4 -22 -32 -50 -61 -27 -28 -50 -57 -50 -63 0 -28 -84 -33 -98 -6 -6 9
-13 37 -17 62 -4 25 -11 52 -16 61 -4 9 -13 47 -19 85 -16 96 -39 171 -86 268
-8 16 -14 34 -14 39 0 6 -6 18 -14 26 -15 16 -96 166 -96 176 0 3 21 15 48 27
90 39 158 101 285 257 23 29 22 38 -14 73 -29 30 -31 30 -71 17 -25 -8 -43
-21 -49 -36 -11 -29 -21 -42 -79 -103 -53 -55 -86 -75 -96 -59 -3 6 -7 68 -9
137 -3 154 -17 221 -55 262 -38 41 -84 42 -98 2 -5 -16 -6 -37 -1 -51 11 -28
32 -222 29 -271 -5 -111 -15 -117 -82 -54 -51 48 -135 106 -188 131 -65 29
-135 53 -156 53 -12 0 -26 5 -29 10 -3 6 -23 10 -43 10 -36 0 -105 19 -118 33
-4 4 -29 7 -56 7 -50 0 -59 11 -38 48 5 9 23 59 40 110 l30 94 -22 24 c-31 32
-82 33 -102 2z"/>
</g>
</svg>
